<svg xmlns="http://www.w3.org/2000/svg" viewBox="0 0 850 280" width="850" height="280">
<defs>
  <!-- Background gradient -->
  <linearGradient id="bgGrad" x1="0%" y1="0%" x2="100%" y2="100%">
    <stop offset="0%" style="stop-color:#0a0e17;stop-opacity:1"/>
    <stop offset="50%" style="stop-color:#0f172a;stop-opacity:1"/>
    <stop offset="100%" style="stop-color:#1a0a2e;stop-opacity:1"/>
  </linearGradient>
  
  <!-- Cyan glow -->
  <filter id="glowCyan" x="-50%" y="-50%" width="200%" height="200%">
    <feGaussianBlur stdDeviation="3" result="blur"/>
    <feMerge>
      <feMergeNode in="blur"/>
      <feMergeNode in="SourceGraphic"/>
    </feMerge>
  </filter>
  
  <!-- Violet glow -->
  <filter id="glowViolet" x="-50%" y="-50%" width="200%" height="200%">
    <feGaussianBlur stdDeviation="4" result="blur"/>
    <feMerge>
      <feMergeNode in="blur"/>
      <feMergeNode in="SourceGraphic"/>
    </feMerge>
  </filter>
  
  <!-- Soft glow for particles -->
  <filter id="softGlow" x="-100%" y="-100%" width="300%" height="300%">
    <feGaussianBlur stdDeviation="2" result="blur"/>
    <feMerge>
      <feMergeNode in="blur"/>
      <feMergeNode in="SourceGraphic"/>
    </feMerge>
  </filter>
  
  <!-- Big ambient glow -->
  <filter id="ambientGlow" x="-100%" y="-100%" width="300%" height="300%">
    <feGaussianBlur stdDeviation="30"/>
  </filter>
  
  <!-- Text shadow -->
  <filter id="textGlow" x="-20%" y="-20%" width="140%" height="140%">
    <feGaussianBlur stdDeviation="6" result="blur"/>
    <feMerge>
      <feMergeNode in="blur"/>
      <feMergeNode in="SourceGraphic"/>
    </feMerge>
  </filter>

  <!-- Grid pattern -->
  <pattern id="grid" width="40" height="40" patternUnits="userSpaceOnUse">
    <path d="M 40 0 L 0 0 0 40" fill="none" stroke="#334155" stroke-width="0.3" opacity="0.15"/>
  </pattern>
  
  <!-- Clip -->
  <clipPath id="bannerClip">
    <rect width="850" height="280" rx="0"/>
  </clipPath>
</defs>

<g clip-path="url(#bannerClip)">
<!-- Background -->
<rect width="850" height="280" fill="url(#bgGrad)"/>

<!-- Grid overlay -->
<rect width="850" height="280" fill="url(#grid)" opacity="0.5"/>


<!-- Ambient glow orbs -->
<circle cx="150" cy="140" r="120" fill="#7c3aed" opacity="0.06" filter="url(#ambientGlow)"/>
<circle cx="700" cy="100" r="100" fill="#00d4ff" opacity="0.05" filter="url(#ambientGlow)"/>
<circle cx="425" cy="200" r="80" fill="#f59e0b" opacity="0.03" filter="url(#ambientGlow)"/>

<path d="M 541.1,8.1 Q 538.4,7.8 535.8,8.5 Q 534.1,10.6 531.5,10.1 Q 529.0,10.9 530.7,8.9 Q 530.3,11.6 532.6,13.0 Q 534.7,11.4 534.9,8.7 Q 536.3,6.5 535.5,9.0 Q 538.1,8.2 535.5,8.8 Q 533.8,10.9 531.2,10.5 Q 528.6,11.3 529.5,13.8 Q 527.2,15.3 528.4,12.9 Q 529.3,15.4 527.0,13.9 Q 524.9,15.5 525.5,12.9 Q 523.5,11.1 524.7,8.8 Q 526.6,10.6 528.4,12.7 Q 529.2,15.2 527.0,13.7 Q 527.4,11.1 528.2,13.6 Q 526.1,15.2 525.6,12.6 Q 523.7,10.8 525.3,8.7 Q 523.5,6.7 523.0,4.1 Q 525.3,2.8 526.5,5.2 Q 528.9,6.4 526.3,6.0 Q 528.6,7.3 528.8,4.6" fill="none" stroke="#10b981" stroke-width="1.2" opacity="0.05"/>
<path d="M 465.8,164.8 Q 466.3,162.6 468.0,164.2 Q 466.3,165.6 468.1,167.0 Q 467.6,164.8 465.9,166.3 Q 467.7,167.6 465.5,166.9 Q 467.4,168.3 465.2,167.6 Q 465.9,165.4 467.7,166.7 Q 467.2,164.5 465.4,166.0 Q 467.3,167.4 465.1,166.7 Q 467.0,168.0 467.6,165.8 Q 467.1,163.6 465.3,165.1 Q 467.2,166.4 466.7,164.2 Q 467.2,162.0 466.6,164.2 Q 467.1,162.0 466.5,164.2 Q 467.0,162.0 466.4,164.1 Q 466.9,161.9 468.6,163.5" fill="none" stroke="#00d4ff" stroke-width="0.5" opacity="0.10"/>
<path d="M 171.7,181.8 Q 172.1,184.4 169.9,185.9 Q 172.4,184.8 170.1,186.3 Q 172.6,185.3 174.9,183.9 Q 176.4,181.7 178.1,183.8 Q 176.5,186.0 179.2,185.7 Q 178.1,188.1 176.5,190.3 Q 175.8,187.7 173.2,187.6 Q 175.6,188.6 173.0,188.5 Q 175.3,187.3 172.7,187.1 Q 175.1,185.9 177.7,185.7 Q 175.6,184.1 174.1,186.3 Q 175.4,184.0 173.9,186.2 Q 175.2,183.9 173.7,186.1 Q 175.0,183.8 176.6,181.6 Q 178.2,183.7 176.6,185.9 Q 179.3,185.6 178.2,188.0 Q 176.6,190.2 176.0,187.6 Q 173.3,187.5 175.8,188.5 Q 173.1,188.4 175.5,189.4 Q 174.9,186.8 176.1,184.5 Q 174.7,186.7 175.9,184.4 Q 174.5,186.6 175.8,184.3 Q 174.3,186.5 175.6,184.2 Q 174.1,186.4 175.4,184.1 Q 173.9,186.3 175.2,183.9 Q 173.8,186.2 175.0,183.8 Q 173.6,186.1 174.8,183.7" fill="none" stroke="#10b981" stroke-width="1.4" opacity="0.07"/>
<path d="M 647.8,44.6 Q 647.1,47.3 649.8,48.2 Q 650.0,51.0 648.9,48.4 Q 651.6,49.2 652.3,46.5 Q 652.7,49.3 653.4,46.5 Q 650.7,45.6 651.0,42.8 Q 648.2,42.8 646.8,45.2 Q 646.9,48.1 644.3,49.1 Q 647.1,48.9 649.8,49.8 Q 648.8,47.1 651.5,48.0 Q 649.9,45.7 650.2,42.8 Q 648.6,40.5 651.4,41.2 Q 648.5,41.1 647.1,43.6 Q 646.4,46.3 646.5,49.2 Q 649.3,48.7 649.5,51.5 Q 651.0,49.1 649.9,46.4 Q 650.2,43.6 647.4,43.9 Q 646.6,46.6 646.8,49.4 Q 649.5,48.9 649.7,51.8 Q 651.2,49.3 651.9,46.6 Q 652.3,49.4 653.0,46.7 Q 653.3,49.5 653.3,52.3 Q 654.8,54.7 652.6,52.9 Q 651.5,55.5 654.0,54.1 Q 651.8,52.4 650.7,55.0 Q 653.0,53.4 650.8,51.6" fill="none" stroke="#00d4ff" stroke-width="0.8" opacity="0.15"/>
<path d="M 75.2,28.2 Q 74.5,32.0 74.8,28.2 Q 77.7,30.6 81.4,31.5 Q 77.7,32.1 78.0,28.3 Q 74.4,29.5 71.8,32.3 Q 68.3,33.8 65.1,35.9 Q 68.0,38.3 65.4,41.1 Q 63.4,44.3 62.3,48.0 Q 61.3,51.7 62.6,55.3 Q 66.4,54.7 63.7,51.9 Q 60.7,54.2 64.3,53.0 Q 61.2,55.3 65.0,54.7 Q 61.9,57.0 65.7,56.4 Q 65.6,52.6 63.8,49.2 Q 60.0,49.6 56.2,49.3 Q 53.5,51.9 49.7,52.4 Q 46.3,54.1 43.3,51.7 Q 40.8,54.7 43.3,51.8 Q 40.9,54.8 43.4,51.9 Q 41.0,54.8 43.5,51.9 Q 41.1,54.9 44.8,54.2 Q 41.5,52.3 40.8,48.6 Q 37.1,47.7 33.4,48.7 Q 30.8,45.9 34.4,44.6 Q 37.3,42.1 36.6,45.9 Q 33.3,44.0 36.2,41.5" fill="none" stroke="#00d4ff" stroke-width="1.0" opacity="0.12"/>
<path d="M 825.4,101.9 Q 821.0,101.0 816.9,102.9 Q 813.5,105.8 813.4,101.3 Q 816.8,98.4 821.0,96.7 Q 823.3,92.8 825.3,96.8 Q 829.8,96.4 826.7,99.7 Q 823.0,97.2 827.2,95.7 Q 830.0,92.2 827.3,95.7 Q 830.0,92.2 827.3,95.7 Q 830.1,92.2 827.3,95.8 Q 830.1,92.2 827.3,95.8 Q 830.1,92.2 827.4,95.8 Q 830.1,92.3 827.4,95.8 Q 830.1,92.3 827.4,95.8 Q 830.2,92.3 827.4,95.8 Q 830.2,92.3 827.5,95.9 Q 830.2,92.3 827.5,95.9 Q 830.2,92.4 827.5,95.9 Q 830.3,92.4 827.5,95.9 Q 830.3,92.4 827.5,95.9 Q 830.3,92.4 827.6,96.0 Q 830.3,92.4 827.6,96.0 Q 830.4,92.4 827.6,96.0 Q 830.4,92.5 827.6,96.0" fill="none" stroke="#10b981" stroke-width="0.9" opacity="0.14"/>
<path d="M 164.5,23.7 Q 165.2,19.4 161.6,21.7 Q 158.5,24.7 159.6,28.9 Q 163.6,27.4 161.7,31.3 Q 163.4,35.3 162.6,39.5 Q 159.6,36.4 156.0,34.0 Q 152.3,36.2 156.6,36.5 Q 153.0,34.2 149.6,36.9 Q 145.4,38.0 141.6,39.9 Q 139.9,43.9 144.2,44.2 Q 147.8,46.6 143.6,47.5 Q 146.8,44.6 143.9,41.4 Q 144.6,37.2 148.6,35.6 Q 149.1,39.9 145.9,37.1 Q 142.0,39.0 140.3,43.0 Q 139.0,38.9 143.3,38.2 Q 147.3,36.7 147.8,40.9 Q 145.3,44.4 142.4,41.3 Q 143.8,45.4 147.4,43.0 Q 148.5,38.8 144.7,40.9 Q 144.5,36.5 142.3,40.3 Q 140.7,44.3 145.0,44.6" fill="none" stroke="#00d4ff" stroke-width="1.4" opacity="0.13"/>
<path d="M 325.4,127.8 Q 326.3,125.5 328.8,125.4 Q 326.3,125.7 328.8,125.6 Q 326.3,126.0 328.8,125.8 Q 326.4,126.2 328.8,126.0 Q 326.4,126.4 328.9,126.3 Q 326.4,126.6 328.9,126.5 Q 326.4,126.9 328.9,126.7 Q 326.5,127.1 327.3,124.8 Q 325.8,122.8 328.3,122.4 Q 327.3,124.7 325.8,122.7 Q 328.3,122.4 327.3,124.7 Q 325.8,122.7 328.2,122.4 Q 327.2,124.6 325.7,122.7 Q 328.2,122.3 327.2,124.6 Q 325.7,122.6 328.2,122.3 Q 327.2,124.6 325.7,122.6 Q 328.2,122.3 327.2,124.5 Q 325.7,122.5 328.1,122.2 Q 327.1,124.5 325.7,122.5 Q 328.1,122.2 327.1,124.5 Q 325.6,122.5 328.1,122.1 Q 327.1,124.4 325.6,122.4 Q 328.1,122.1 327.1,124.4 Q 325.6,122.4 328.1,122.1 Q 327.1,124.4 325.6,122.4 Q 328.0,122.0 327.0,124.3" fill="none" stroke="#7c3aed" stroke-width="0.8" opacity="0.06"/>
<path d="M 796.9,183.8 Q 794.7,182.8 795.5,180.5 Q 797.1,178.5 794.7,178.1 Q 797.1,178.6 794.7,178.2 Q 797.1,178.7 794.6,178.2 Q 797.1,178.8 794.6,178.3 Q 797.1,178.9 794.6,178.4 Q 797.1,179.0 794.6,178.5 Q 797.0,179.0 798.0,176.7 Q 799.6,174.8 798.1,172.8 Q 795.6,172.6 796.0,170.1 Q 796.9,172.5 797.2,170.0 Q 794.8,169.3 794.6,166.7 Q 792.3,167.6 789.7,167.8 Q 791.2,165.8 789.2,167.3 Q 790.6,165.3 790.9,162.8 Q 793.3,163.6 790.8,163.3 Q 788.6,162.0 788.2,164.5 Q 787.1,162.3 786.7,164.7 Q 786.7,162.2 787.1,164.7 Q 786.0,162.5 786.3,165.0 Q 786.4,162.4 786.7,164.9 Q 786.8,162.4 787.2,164.9 Q 786.0,162.7 786.4,165.2 Q 784.2,164.0 786.6,164.7 Q 786.7,162.2 787.0,164.7 Q 785.9,162.5 786.2,165.0 Q 786.3,162.4 786.7,164.9 Q 786.7,162.4 787.1,164.9 Q 786.0,162.7 786.3,165.2 Q 784.1,164.0 786.5,164.7 Q 786.6,162.2 786.9,164.7 Q 787.0,162.2 786.6,164.7 Q 786.7,162.2 787.0,164.6 Q 785.9,162.4 786.2,164.9" fill="none" stroke="#10b981" stroke-width="1.0" opacity="0.07"/>
<path d="M 232.0,259.9 Q 233.9,258.0 236.3,256.8 Q 236.2,254.2 238.2,252.4 Q 240.8,252.3 243.2,251.0 Q 245.8,250.8 245.6,253.4 Q 243.0,254.2 245.6,253.3 Q 243.0,254.1 245.5,253.3 Q 243.0,254.1 242.2,251.5 Q 239.6,252.2 242.0,250.9 Q 244.5,251.8 247.1,251.5 Q 249.7,252.3 247.0,252.8 Q 249.6,253.5 250.3,256.1 Q 248.8,253.8 246.6,255.3 Q 249.3,255.4 247.8,253.1 Q 245.6,254.6 243.1,255.4 Q 242.8,258.0 242.1,255.4 Q 244.7,255.8 244.4,258.5 Q 241.8,257.7 241.1,255.1 Q 243.8,255.5 243.4,258.2 Q 240.9,257.4 239.2,255.4 Q 240.7,257.6 238.9,255.6 Q 238.7,252.9 241.3,252.9 Q 238.7,253.5 241.3,252.8 Q 238.7,253.4 241.3,252.7 Q 238.7,253.4 241.3,252.6 Q 238.7,253.3 241.2,252.6 Q 238.7,253.2 241.2,252.5 Q 238.6,253.1 241.2,252.4 Q 238.6,253.1 241.2,252.3 Q 238.6,253.0 241.3,252.9 Q 238.7,253.6 241.2,252.9 Q 238.7,253.5 241.2,252.8 Q 238.6,253.4 241.2,252.7" fill="none" stroke="#7c3aed" stroke-width="1.3" opacity="0.13"/>
<path d="M 193.8,11.7 Q 191.5,13.3 189.9,15.6 Q 187.2,16.3 189.5,14.7 Q 192.3,15.2 194.0,17.4 Q 194.2,20.2 192.7,17.9 Q 189.9,17.9 192.6,18.8 Q 189.8,18.8 192.5,19.7 Q 189.7,20.3 192.1,21.8 Q 193.9,24.0 191.8,25.9 Q 194.5,25.0 195.4,27.7 Q 197.9,26.3 200.1,24.6 Q 199.2,21.9 200.7,24.3 Q 199.9,21.6 201.3,24.0 Q 204.1,24.2 204.9,21.5 Q 206.0,18.9 203.4,17.9 Q 202.5,20.5 200.5,22.5 Q 201.9,24.9 204.7,25.1 Q 206.8,27.0 204.2,25.8 Q 206.3,27.7 205.7,25.0 Q 203.0,25.9 205.0,23.9 Q 202.4,24.8 205.2,25.0 Q 202.6,23.9 205.4,24.0 Q 202.8,24.9 205.5,25.1 Q 203.0,24.0 205.8,24.1 Q 203.1,25.0 205.2,27.0 Q 202.6,25.8 204.7,23.9 Q 205.4,21.2 205.6,18.4 Q 203.0,17.3 202.1,19.9" fill="none" stroke="#00d4ff" stroke-width="1.1" opacity="0.14"/>
<path d="M 612.8,63.4 Q 612.0,68.0 609.5,64.1 Q 609.2,68.7 605.5,65.9 Q 605.2,70.5 609.9,70.3 Q 605.7,68.2 603.7,72.4 Q 599.2,71.3 599.0,76.0 Q 595.1,73.4 590.9,71.3 Q 590.4,75.9 590.2,80.6 Q 585.9,78.9 590.5,79.5 Q 586.1,77.8 590.8,78.4 Q 589.3,82.8 592.0,86.6 Q 587.5,87.5 583.8,90.3 Q 579.9,87.8 575.5,86.3 Q 575.5,90.9 574.6,95.5 Q 578.4,92.9 579.5,97.4 Q 579.5,102.1 579.4,97.4 Q 579.5,102.1 579.4,97.4 Q 579.4,102.1 579.4,97.4 Q 579.4,102.1 579.4,97.4 Q 579.4,102.1 579.4,97.4 Q 579.4,102.1 579.3,97.4 Q 579.4,102.1 579.3,97.4 Q 579.3,102.1 579.3,97.4 Q 579.3,102.1 579.3,97.4 Q 579.3,102.1 579.3,97.4 Q 579.3,102.1 579.3,97.4 Q 579.3,102.1 579.2,97.4 Q 579.3,102.1 579.2,97.4" fill="none" stroke="#10b981" stroke-width="0.8" opacity="0.09"/>
<path d="M 206.7,154.8 Q 203.0,155.1 206.5,156.3 Q 205.0,152.9 208.4,151.4 Q 206.4,154.6 202.7,154.9 Q 199.0,155.7 199.9,159.3 Q 200.2,163.1 196.4,163.4 Q 193.7,166.0 191.6,162.9 Q 191.9,166.7 194.9,169.0 Q 191.9,171.3 194.6,168.7 Q 192.0,171.4 194.7,168.8 Q 192.0,171.5 194.7,168.9 Q 192.1,171.5 194.8,168.9 Q 192.2,171.6 194.9,169.0 Q 192.2,171.6 194.9,169.0 Q 192.0,171.4 194.7,168.8 Q 192.0,171.4 194.7,168.8 Q 192.1,171.5 194.8,168.9 Q 192.2,171.5 194.9,168.9 Q 192.2,171.6 194.9,169.0 Q 192.3,171.7 195.0,169.1 Q 192.0,171.4 194.7,168.8 Q 192.1,171.5 194.8,168.8 Q 192.2,171.5 194.9,168.9 Q 192.2,171.6 194.9,169.0 Q 192.3,171.6 195.0,169.0 Q 192.0,171.4 194.7,168.7 Q 192.1,171.4 194.8,168.8 Q 192.2,171.5 194.8,168.9 Q 192.2,171.5 194.9,168.9 Q 192.3,171.6 195.0,169.0 Q 192.3,171.7 195.0,169.0 Q 193.5,165.6 191.4,162.5 Q 191.7,166.3 194.6,168.6 Q 192.0,171.3 194.7,168.7 Q 192.1,171.3 194.8,168.7 Q 192.1,171.4 194.8,168.8 Q 192.2,171.4 194.9,168.8 Q 192.2,171.5 194.9,168.9 Q 192.3,171.6 195.0,169.0" fill="none" stroke="#10b981" stroke-width="0.7" opacity="0.08"/>
<path d="M 846.3,141.2 Q 845.2,143.0 845.1,145.2 Q 843.6,143.6 844.8,141.8 Q 846.8,142.6 845.6,144.4 Q 845.5,146.5 844.1,144.9 Q 845.2,143.1 845.1,145.3 Q 843.7,143.7 844.9,141.9 Q 846.9,142.7 845.7,144.5 Q 845.6,146.6 844.2,145.0 Q 842.6,143.5 840.6,142.8 Q 840.8,144.9 838.7,145.5 Q 840.6,144.4 838.5,145.0 Q 840.4,143.9 838.3,144.5 Q 840.1,145.8 838.1,146.6 Q 839.9,145.5 837.9,146.3 Q 839.8,145.2 837.8,146.0 Q 839.7,145.0 837.6,145.5 Q 839.4,144.5 837.4,145.0 Q 839.2,144.0 837.2,144.5 Q 838.9,145.8 840.8,144.7 Q 838.7,145.3 840.5,144.2 Q 838.5,144.8 840.2,146.0 Q 838.2,146.8 840.1,145.7 Q 838.1,146.6 840.0,145.5 Q 838.0,146.3 839.8,145.2 Q 837.9,146.0 839.7,144.9 Q 837.6,145.5 839.5,144.4 Q 837.4,145.0 839.3,143.9 Q 837.2,144.5 839.0,145.8 Q 840.8,144.7 838.7,145.3 Q 840.6,144.2 838.5,144.8 Q 840.3,146.0 838.3,146.8 Q 840.1,145.7 838.2,146.5 Q 840.0,145.5 838.0,146.3 Q 839.9,145.2 837.9,146.0 Q 839.7,144.9 837.7,145.5 Q 839.5,144.4 837.5,145.0 Q 839.3,143.9 837.3,144.5 Q 839.0,145.7 840.8,144.7" fill="none" stroke="#00d4ff" stroke-width="0.7" opacity="0.06"/>
<path d="M 581.5,169.1 Q 577.9,170.0 580.7,167.5 Q 577.1,166.5 580.2,168.6 Q 576.6,167.5 577.1,163.8 Q 580.9,163.7 578.7,166.8 Q 581.8,168.9 578.1,168.1 Q 577.6,171.8 576.2,175.3 Q 577.9,178.7 574.5,180.3 Q 577.6,178.2 574.2,179.8 Q 577.3,177.7 573.9,179.3 Q 577.0,177.2 573.6,178.8 Q 574.5,182.5 575.1,186.2 Q 572.0,188.3 575.7,187.9 Q 576.2,184.1 579.2,186.5 Q 578.2,182.8 575.5,185.5 Q 572.3,187.6 576.1,187.2 Q 576.6,183.4 579.6,185.8 Q 578.6,182.1 575.9,184.8 Q 578.9,187.2 580.2,190.7 Q 579.9,194.5 576.9,192.2 Q 578.5,195.7 582.3,195.1 Q 585.5,193.0 588.8,194.9 Q 587.3,198.4 590.6,196.4 Q 588.0,193.6 586.5,197.1 Q 589.3,194.5 589.9,190.8 Q 592.8,188.3 590.9,185.0 Q 592.2,188.6 590.3,185.3" fill="none" stroke="#7c3aed" stroke-width="1.5" opacity="0.10"/>
<path d="M 727.8,4.4 Q 731.4,6.2 727.4,5.9 Q 731.0,7.6 734.9,8.8 Q 738.3,6.6 735.4,9.5 Q 731.8,7.7 735.7,8.9 Q 735.0,12.8 731.3,14.3 Q 735.1,15.5 731.1,15.9 Q 727.1,16.4 730.0,19.2 Q 729.9,15.1 728.2,18.8 Q 730.7,15.6 729.1,19.3 Q 729.0,15.3 731.9,18.1 Q 733.0,22.0 736.0,19.2 Q 733.7,22.6 736.7,19.8 Q 734.4,23.2 738.4,22.6 Q 737.7,18.7 739.4,15.0 Q 735.6,13.4 736.4,9.4 Q 732.8,7.6 736.6,8.8 Q 736.0,12.8 732.2,14.3 Q 736.1,15.4 732.1,15.8" fill="none" stroke="#10b981" stroke-width="1.3" opacity="0.12"/>
<path d="M 287.5,83.4 Q 286.0,82.1 287.2,83.7 Q 285.6,82.5 286.9,84.0 Q 287.8,85.8 286.1,86.9 Q 287.8,88.0 286.3,89.4 Q 286.3,87.3 284.5,86.6 Q 284.2,84.6 285.2,86.3 Q 286.8,87.5 285.0,86.7 Q 284.7,84.7 285.7,86.4 Q 287.4,87.6 285.9,88.9 Q 284.0,88.1 286.0,87.6 Q 284.1,86.9 283.9,84.9 Q 284.8,86.6 284.5,84.6 Q 285.5,86.4 287.2,87.5 Q 285.7,88.9 283.8,88.1 Q 285.8,87.6 283.9,86.8 Q 283.7,84.8 284.6,86.6 Q 284.4,84.6 285.3,86.4 Q 287.0,87.5 285.1,86.7 Q 286.8,87.8 285.0,87.0 Q 286.9,86.6 288.6,87.7 Q 287.1,89.0 285.5,87.9 Q 283.6,87.1 285.6,86.6 Q 287.2,87.7 285.8,89.1 Q 285.8,87.1 284.0,86.3 Q 283.7,84.3 284.6,86.0 Q 284.4,84.0 285.3,85.8 Q 287.0,86.9 285.3,88.0 Q 283.4,87.2 285.4,86.7 Q 287.1,87.8 285.6,89.2" fill="none" stroke="#10b981" stroke-width="0.8" opacity="0.14"/>
<path d="M 421.9,52.9 Q 424.7,56.6 423.7,52.1 Q 427.5,49.5 426.4,54.0 Q 421.8,53.8 425.7,51.4 Q 422.7,47.9 427.2,47.0 Q 425.6,51.3 422.6,47.8 Q 427.1,46.9 425.5,51.2 Q 422.5,47.8 427.0,46.8 Q 425.4,51.2 422.4,47.7 Q 426.9,46.7 425.9,51.2 Q 422.9,47.8 427.4,46.8 Q 425.8,51.1 422.8,47.7 Q 427.3,46.7 425.7,51.1 Q 422.7,47.6 427.2,46.6 Q 425.6,51.0 422.0,53.9 Q 425.9,51.4 422.9,48.0 Q 427.4,47.0 430.5,43.6 Q 433.7,40.2 429.6,38.1" fill="none" stroke="#7c3aed" stroke-width="1.0" opacity="0.13"/>
<path d="M 170.3,109.4 Q 171.1,104.6 169.7,109.3 Q 170.5,104.5 171.7,109.2 Q 172.0,114.0 168.2,117.1 Q 163.3,117.2 168.2,117.6 Q 163.3,117.8 168.1,118.2 Q 163.3,118.3 168.1,118.8 Q 163.3,118.9 168.1,119.3 Q 171.5,122.8 168.5,126.6 Q 171.2,122.6 168.2,126.4 Q 171.0,122.4 166.1,122.1 Q 167.2,126.8 169.9,122.8 Q 165.0,122.5 166.1,127.3 Q 169.7,130.6 165.1,132.2 Q 165.2,127.4 168.8,130.7 Q 165.0,127.6 168.6,130.9 Q 164.9,127.8 167.0,132.1 Q 162.8,129.7 162.5,134.5 Q 157.8,133.2 153.4,135.3 Q 154.3,130.5 150.9,134.0 Q 147.3,137.2 147.0,142.1 Q 149.4,137.8 148.5,142.6 Q 149.0,147.5 153.8,147.5 Q 154.4,142.7 155.9,147.3 Q 158.2,143.0 161.8,146.3 Q 157.0,145.5 152.2,144.6 Q 156.5,146.7 151.8,145.8 Q 156.1,148.0 158.4,143.7 Q 154.8,147.1 155.4,142.2 Q 152.9,146.4 157.3,148.6 Q 152.4,149.1 147.6,148.4 Q 152.5,148.4 154.4,144.0" fill="none" stroke="#10b981" stroke-width="1.1" opacity="0.14"/>
<path d="M 413.1,29.7 Q 415.6,28.6 418.1,27.5 Q 420.1,25.6 417.8,24.1 Q 418.3,21.5 418.0,18.8 Q 417.4,16.1 416.5,18.6 Q 418.8,20.0 417.6,17.6 Q 417.1,14.9 415.7,12.6 Q 414.0,10.5 415.1,13.0 Q 413.3,10.9 414.4,13.4 Q 416.2,11.3 414.4,9.2 Q 415.5,11.7 413.8,9.6 Q 414.9,12.1 417.6,11.7 Q 415.0,10.9 416.1,13.4 Q 415.7,10.7 417.8,12.4 Q 415.2,11.5 413.5,9.4 Q 414.6,11.9 417.3,11.6 Q 414.7,10.7 415.8,13.2 Q 415.4,10.5 417.5,12.2 Q 414.9,11.3 417.6,11.0 Q 418.6,8.4 417.7,5.8 Q 415.0,6.2 413.5,3.9 Q 411.2,2.5 413.8,1.6 Q 414.9,4.1 412.7,2.6" fill="none" stroke="#00d4ff" stroke-width="1.4" opacity="0.14"/>
<path d="M 75.4,133.6 Q 79.0,134.1 81.7,131.7 Q 84.6,129.7 81.1,130.5 Q 83.7,133.0 80.3,131.9 Q 80.8,128.3 84.1,129.7 Q 80.6,130.6 77.0,130.2 Q 80.4,128.8 83.7,130.2 Q 80.2,131.1 80.7,127.5 Q 84.0,128.9 86.9,131.0 Q 89.3,128.3 87.0,131.1 Q 89.6,128.6 87.3,131.4 Q 87.8,134.9 90.9,133.1 Q 88.0,135.2 90.0,132.2 Q 92.3,129.5 88.8,128.9 Q 92.2,127.7 89.7,125.0 Q 89.2,121.5 85.9,122.8 Q 84.9,126.3 86.5,123.0 Q 85.5,126.5 82.0,126.9 Q 85.4,125.8 81.8,126.2 Q 85.2,125.1 81.7,125.5 Q 85.1,124.4 86.2,120.9 Q 82.6,121.2 81.5,124.6 Q 84.7,126.2 86.2,123.0 Q 85.3,126.4 81.7,126.9 Q 85.1,125.7 81.6,126.2 Q 85.0,125.0 86.5,121.8 Q 85.6,125.3 82.0,125.7 Q 85.4,124.6 86.5,121.1 Q 85.6,124.6 86.7,121.2 Q 85.7,124.6 86.8,121.2 Q 85.9,124.7 87.0,121.3 Q 86.1,124.7 87.1,121.3 Q 87.1,124.9 89.9,122.7 Q 86.6,124.0 87.7,120.6 Q 91.0,119.3 90.1,115.9 Q 92.3,118.7 92.4,115.1 Q 89.2,116.7 91.4,119.5 Q 90.4,116.1 92.7,118.9 Q 92.8,115.3 89.6,116.9" fill="none" stroke="#00d4ff" stroke-width="1.0" opacity="0.05"/>
<path d="M 465.7,77.1 Q 463.2,74.9 460.2,73.8 Q 458.6,76.6 461.3,74.8 Q 464.3,76.1 466.6,73.8 Q 469.7,74.8 472.6,76.2 Q 469.6,77.3 471.9,79.6 Q 475.0,80.8 477.4,78.6 Q 477.6,75.4 480.6,76.7 Q 477.3,76.9 480.3,78.2 Q 478.6,81.1 481.3,79.2 Q 479.2,81.6 480.1,78.5 Q 478.5,81.4 481.2,79.5 Q 479.0,81.9 480.0,78.8 Q 478.4,81.7 481.0,79.7 Q 478.9,82.2 481.6,80.3 Q 479.4,82.8 480.4,79.7 Q 482.3,77.0 482.5,73.8 Q 485.4,72.3 482.1,72.5 Q 483.1,75.7 486.4,75.6 Q 484.2,78.1 483.7,81.3 Q 486.2,83.4 485.5,86.6 Q 488.8,86.8 491.2,89.0 Q 488.4,90.8 487.1,93.8 Q 490.4,93.7 487.2,93.1 Q 490.4,93.0 487.2,92.4 Q 483.9,92.3 481.3,94.3 Q 479.4,91.7 482.6,91.1 Q 480.2,88.9 482.5,86.6 Q 481.9,89.8 484.4,91.8 Q 481.8,93.8 479.8,91.2 Q 483.1,90.6 486.3,90.3 Q 488.4,92.8 485.1,92.7 Q 483.8,95.7 480.9,97.2 Q 482.0,94.1 480.0,91.5" fill="none" stroke="#00d4ff" stroke-width="1.3" opacity="0.14"/>
<path d="M 590.1,198.3 Q 588.3,194.8 590.2,198.3 Q 588.3,194.8 590.2,198.3 Q 588.4,194.8 590.3,198.2 Q 588.5,194.7 590.3,198.2 Q 588.5,194.7 590.4,198.2 Q 588.6,194.7 590.5,198.1 Q 588.6,194.6 590.5,198.1 Q 588.7,194.6 590.6,198.1 Q 588.7,194.6 590.6,198.1 Q 588.8,194.6 590.7,198.0 Q 588.9,194.5 590.7,198.0 Q 588.9,194.5 590.8,198.0 Q 589.0,194.5 590.9,197.9 Q 589.0,194.4 590.1,198.2 Q 588.3,194.7 590.2,198.2 Q 588.4,194.7 590.3,198.2 Q 588.4,194.7 590.3,198.1 Q 588.5,194.6 590.4,198.1 Q 588.5,194.6 590.4,198.1 Q 588.6,194.6 590.5,198.0 Q 588.6,194.5 590.5,198.0 Q 588.7,194.5 590.6,198.0 Q 588.8,194.5 590.7,197.9 Q 588.8,194.4 590.7,197.9 Q 588.9,194.4 590.8,197.9 Q 588.9,194.4 590.8,197.9 Q 589.0,194.4 590.9,197.8 Q 589.0,194.3 590.2,198.1 Q 588.3,194.6 590.2,198.1 Q 588.4,194.6 590.3,198.1 Q 588.4,194.6 590.3,198.0 Q 588.5,194.5 590.4,198.0 Q 588.6,194.5 590.4,198.0 Q 588.6,194.5 590.5,197.9 Q 588.7,194.4 590.6,197.9" fill="none" stroke="#7c3aed" stroke-width="1.0" opacity="0.14"/>
<path d="M 208.5,20.9 Q 206.2,18.0 202.7,17.0 Q 199.2,18.0 201.2,21.0 Q 199.6,24.3 195.9,24.9 Q 194.7,28.4 194.4,24.7 Q 194.2,21.1 195.6,17.6 Q 192.4,19.4 189.5,17.2 Q 193.1,17.1 193.2,20.7 Q 193.3,17.1 193.4,20.7 Q 193.5,17.1 193.6,20.7 Q 193.7,17.1 193.8,20.7 Q 193.9,17.1 194.0,20.7 Q 194.1,17.1 194.2,20.7 Q 194.3,17.1 194.3,20.7 Q 194.4,17.1 194.5,20.7 Q 194.6,17.1 194.7,20.7 Q 194.8,17.1 194.9,20.7 Q 195.0,17.1 191.8,18.9 Q 190.1,22.1 193.8,22.3 Q 195.1,18.9 191.9,20.7 Q 189.0,18.5 192.7,18.4 Q 191.0,21.6 194.6,21.8 Q 196.0,18.4 192.8,20.2 Q 189.9,18.0 193.5,17.9 Q 193.6,21.5 194.9,18.1 Q 195.0,21.8 197.4,24.6 Q 194.0,26.2 190.4,25.7 Q 193.4,27.8 193.1,24.2 Q 192.9,20.5 190.0,18.3 Q 193.7,18.1 193.8,21.8 Q 195.1,18.4 191.9,20.2 Q 189.0,18.0 188.9,14.3 Q 192.3,15.6 195.9,15.0 Q 196.4,18.7 193.2,20.5" fill="none" stroke="#10b981" stroke-width="0.6" opacity="0.06"/>
<path d="M 538.0,68.4 Q 538.0,63.8 533.7,62.2 Q 537.1,65.3 532.5,65.3 Q 535.4,68.8 539.2,71.4 Q 543.6,72.8 544.7,68.4 Q 547.7,71.8 543.9,69.3 Q 547.2,66.1 551.5,64.6 Q 552.7,60.2 549.9,56.6 Q 547.3,52.7 549.8,48.9 Q 552.3,52.8 556.7,51.6 Q 552.2,52.5 556.6,51.4 Q 552.1,52.3 556.6,51.2 Q 552.1,52.1 556.5,50.9 Q 552.0,51.5 556.4,50.3 Q 551.9,50.9 550.2,55.2 Q 547.7,51.4 550.2,47.5" fill="none" stroke="#00d4ff" stroke-width="0.8" opacity="0.10"/>
<path d="M 411.2,147.5 Q 408.4,150.0 410.3,153.3 Q 414.0,153.4 411.7,156.3 Q 414.1,159.1 415.4,162.6 Q 414.7,166.3 417.5,168.7 Q 413.8,168.1 415.8,164.9 Q 419.2,163.5 422.2,165.7 Q 420.1,162.6 421.8,159.3 Q 418.1,159.8 414.6,158.6 Q 417.8,160.5 414.3,159.3 Q 415.5,162.8 414.8,166.4 Q 417.6,168.9 413.9,168.3 Q 415.9,165.1 414.4,168.5 Q 416.3,165.3 414.8,168.7 Q 416.8,165.5 415.2,168.9 Q 418.8,170.1 419.4,173.8 Q 416.8,171.2 419.3,173.9 Q 416.7,171.2 419.2,174.0 Q 416.6,171.3 419.1,174.1 Q 416.5,171.4 419.0,174.1 Q 416.4,171.5 419.0,174.2 Q 422.7,174.6 421.4,171.1 Q 418.3,173.2 422.0,173.5 Q 420.7,170.0 422.2,173.4 Q 420.9,169.9 422.4,173.3 Q 421.1,169.8 419.8,166.3 Q 420.0,170.1 421.5,173.5 Q 420.2,170.0 421.7,173.4 Q 420.4,169.9 421.9,173.3 Q 420.6,169.8 422.1,173.2 Q 420.8,169.7 422.3,173.1 Q 421.0,169.6 419.8,166.1 Q 419.9,169.8 421.4,173.2" fill="none" stroke="#00d4ff" stroke-width="1.3" opacity="0.13"/>
<path d="M 159.2,29.1 Q 158.7,25.9 155.5,26.9 Q 154.2,23.9 152.9,26.9 Q 150.7,29.3 150.7,32.6 Q 151.3,29.3 150.2,32.4 Q 150.8,29.2 150.8,32.5 Q 151.4,29.3 150.3,32.3 Q 150.9,29.1 150.9,32.4 Q 151.6,29.2 150.4,32.2 Q 151.0,29.0 149.9,32.1 Q 150.5,28.9 153.6,27.8 Q 153.8,24.5 152.5,27.5 Q 152.3,30.8 151.1,33.9 Q 152.7,31.0 151.5,34.0 Q 153.1,31.2 156.3,30.5 Q 153.9,32.8 157.1,32.1 Q 158.0,35.3 160.7,37.1 Q 157.9,38.7 157.7,35.5 Q 160.4,37.2 157.6,38.9 Q 157.4,35.6 160.2,37.4 Q 157.3,39.1 155.4,41.7 Q 152.3,42.9 151.3,46.0 Q 148.4,47.6 148.9,50.8 Q 149.7,54.0 152.9,54.4 Q 154.3,51.5 157.4,50.4 Q 158.4,47.2 158.5,44.0" fill="none" stroke="#7c3aed" stroke-width="0.6" opacity="0.14"/>
<path d="M 552.6,184.0 Q 555.0,180.6 557.1,184.1 Q 560.6,181.8 558.7,178.0 Q 554.6,177.4 551.7,174.4 Q 555.1,176.8 557.9,173.8 Q 561.6,171.8 563.0,167.9 Q 567.1,168.7 563.6,171.1 Q 560.3,173.7 561.4,169.6 Q 565.6,170.2 568.2,173.5 Q 566.1,169.9 568.7,173.1 Q 566.6,169.5 569.2,172.8 Q 567.4,169.0 563.4,167.9 Q 566.3,164.9 570.1,166.6 Q 572.3,170.2 573.5,166.1 Q 576.2,163.0 580.2,161.6 Q 576.8,159.2 573.2,157.0 Q 571.2,160.6 573.7,164.0 Q 576.6,167.0 579.6,169.9 Q 583.5,168.6 585.5,172.3 Q 589.2,174.3 588.2,170.2 Q 590.3,173.9 589.3,169.8 Q 592.9,167.6 590.3,170.9 Q 593.9,168.7 597.9,167.5 Q 596.9,171.5 593.4,169.3 Q 589.5,170.9 593.0,168.7 Q 597.1,167.4 596.1,171.5 Q 592.5,169.3 595.6,172.1 Q 592.1,169.8 595.2,172.6" fill="none" stroke="#00d4ff" stroke-width="0.7" opacity="0.07"/>
<path d="M 379.3,116.2 Q 381.2,118.2 379.2,116.4 Q 381.1,118.4 379.1,116.5 Q 381.0,118.5 383.7,118.2 Q 381.0,118.1 383.7,117.9 Q 381.0,117.7 383.7,117.5 Q 381.0,117.3 383.7,117.1 Q 381.0,116.9 382.9,118.9 Q 380.9,117.0 383.6,116.8 Q 385.7,115.0 383.3,116.4 Q 385.4,114.6 388.1,113.9 Q 388.6,111.2 388.6,108.4 Q 386.0,107.6 386.5,110.3 Q 383.9,109.5 383.8,112.2 Q 382.5,109.8 385.3,110.1 Q 382.6,109.3 385.4,109.5 Q 382.7,108.8 384.3,111.0 Q 383.0,108.6 380.6,107.2 Q 378.1,108.3 380.7,107.5 Q 378.2,108.6 380.9,107.8 Q 378.3,108.9 381.0,108.2 Q 378.4,109.2 376.9,111.5 Q 374.2,110.8 376.9,111.2 Q 374.3,110.5 377.0,110.9 Q 378.4,113.2 375.8,114.0 Q 373.4,115.4 371.3,113.6 Q 370.2,116.1 371.4,113.7 Q 370.3,116.2 371.6,113.8 Q 370.4,116.2 371.7,113.8 Q 370.5,116.3 371.8,113.9" fill="none" stroke="#00d4ff" stroke-width="1.4" opacity="0.09"/>
<path d="M 465.2,10.0 Q 466.0,5.2 464.0,0.7 Q 459.2,0.2 454.3,0.7" fill="none" stroke="#00d4ff" stroke-width="1.0" opacity="0.06"/>
<path d="M 182.4,115.4 Q 179.5,116.6 182.2,115.0 Q 179.3,116.3 182.1,114.7 Q 181.8,111.6 182.5,114.7 Q 182.2,111.5 182.9,114.6 Q 182.6,111.5 183.3,114.5 Q 183.3,111.4 180.2,110.9 Q 177.6,109.3 174.7,107.9 Q 172.2,106.0 169.6,104.3 Q 171.4,101.7 173.3,104.2 Q 175.0,101.6 174.9,104.7 Q 176.6,102.1 176.5,105.3 Q 179.5,104.4 176.4,104.7 Q 177.1,107.8 178.8,105.1 Q 176.9,107.7 174.1,108.9 Q 171.5,107.1 168.5,108.1 Q 171.7,107.7 168.7,108.7 Q 171.8,108.3 168.8,109.3 Q 171.9,108.9 169.0,109.9 Q 172.1,109.5 174.3,107.3" fill="none" stroke="#7c3aed" stroke-width="1.3" opacity="0.07"/>
<path d="M 391.4,120.3 Q 388.2,116.4 386.6,111.7 Q 388.0,106.9 386.5,111.7 Q 387.9,106.9 386.4,111.6 Q 387.8,106.8 386.3,111.6 Q 387.7,106.8 386.2,111.6 Q 387.6,106.8 386.1,111.5 Q 387.4,106.7 386.0,111.5 Q 387.3,106.7 385.8,111.5 Q 387.2,106.7 385.7,111.4 Q 387.1,106.6 385.6,111.4 Q 387.0,106.6 386.2,101.7 Q 381.4,100.6 380.2,95.7 Q 375.6,97.6 371.2,95.2 Q 366.4,94.0 362.0,91.6 Q 363.1,86.8 358.2,86.1 Q 357.4,81.2 353.0,78.7 Q 350.4,83.0 346.2,85.7 Q 351.1,84.7 356.0,83.6 Q 357.8,88.3 360.2,92.6 Q 364.3,89.7 368.6,92.3 Q 373.1,94.3 370.5,90.1 Q 368.2,94.5 364.2,91.6 Q 367.7,95.1 372.7,94.8 Q 371.5,89.9 373.1,85.2 Q 373.7,90.2 368.7,90.0 Q 368.9,94.9 364.8,92.0 Q 368.4,95.5 373.4,95.2 Q 369.6,91.9 374.6,91.7 Q 369.8,90.2 367.5,94.6 Q 363.4,91.7 367.0,95.2 Q 372.0,94.9 370.8,90.0 Q 368.5,94.5 364.4,91.6 Q 368.0,95.1 373.0,94.7 Q 371.7,89.9 373.4,85.2 Q 373.9,90.1 369.0,89.9 Q 369.2,94.9 366.6,90.6 Q 369.9,86.8 374.2,84.3" fill="none" stroke="#10b981" stroke-width="1.0" opacity="0.11"/>
<path d="M 161.2,56.8 Q 160.7,60.9 162.3,57.0 Q 163.1,61.2 159.2,59.6 Q 160.8,55.7 156.6,56.2 Q 159.0,59.7 155.1,61.4 Q 157.4,65.0 153.5,66.3 Q 151.3,69.9 153.4,66.3 Q 151.3,69.9 153.4,66.3 Q 151.2,69.9 153.3,66.2 Q 151.2,69.9 153.3,66.2 Q 151.2,69.8 153.3,66.2 Q 151.1,69.8 153.2,66.2 Q 151.1,69.8 153.2,66.2 Q 151.1,69.8 153.2,66.1 Q 151.0,69.8 153.1,66.1 Q 151.0,69.7 146.9,70.7 Q 149.1,67.1 145.0,65.9 Q 145.8,61.8 146.7,57.6 Q 145.8,61.8 146.7,57.6 Q 145.8,61.8 146.7,57.6 Q 145.8,61.8 146.7,57.7 Q 145.8,61.8 146.7,57.7 Q 145.8,61.8 146.7,57.7 Q 145.8,61.8 146.7,57.7 Q 145.8,61.8 146.7,57.7 Q 145.8,61.8 146.7,57.7 Q 145.8,61.8 146.8,57.7 Q 145.8,61.8 146.8,57.7 Q 145.9,61.8 146.8,57.7 Q 145.9,61.8 146.8,57.7 Q 145.9,61.8 146.8,57.7 Q 145.9,61.8 146.8,57.7 Q 145.9,61.8 146.8,57.7 Q 145.9,61.8 146.8,57.7" fill="none" stroke="#00d4ff" stroke-width="0.6" opacity="0.12"/>
<path d="M 498.4,142.4 Q 497.7,140.1 500.0,139.3 Q 498.0,137.9 499.9,136.4 Q 501.0,138.6 498.7,137.7 Q 500.6,136.2 501.6,138.4 Q 499.2,138.4 496.9,137.5 Q 494.6,138.4 493.0,140.4 Q 491.2,138.6 492.0,136.3 Q 494.5,136.2 496.3,134.5 Q 498.7,134.9 500.2,136.9 Q 501.2,139.1 501.7,136.7 Q 501.5,134.2 503.0,136.1 Q 502.4,133.7 504.0,135.6 Q 503.3,133.2 504.4,135.5 Q 503.7,133.1 504.8,135.3 Q 504.1,132.9 506.4,132.0 Q 504.4,130.5 506.5,131.8 Q 504.6,130.2 506.7,131.5 Q 504.8,130.0 506.9,131.3 Q 504.9,129.8 507.0,131.1 Q 509.5,131.1 510.7,129.0 Q 511.6,131.2 510.8,128.9 Q 511.7,131.2 510.9,128.9 Q 511.9,131.1 511.1,128.8 Q 513.4,129.6 512.7,132.0 Q 511.9,129.7 513.7,128.0 Q 514.7,130.3 514.0,132.7 Q 512.2,130.9 514.1,129.3 Q 513.4,131.6 511.7,129.9 Q 513.5,128.2 514.4,130.5 Q 513.7,132.9 512.0,131.1 Q 511.2,128.8 513.5,129.6" fill="none" stroke="#10b981" stroke-width="0.7" opacity="0.05"/>
<path d="M 503.4,188.7 Q 505.4,190.0 503.1,189.6 Q 502.4,187.3 501.1,185.4 Q 503.5,185.1 502.8,182.8 Q 503.6,185.1 502.9,182.8 Q 503.7,185.0 503.1,182.8 Q 501.7,184.7 501.6,187.0 Q 500.3,185.1 502.3,186.3 Q 504.6,186.1 504.0,183.8 Q 506.4,183.7 507.1,185.9 Q 505.3,187.5 507.6,186.7 Q 505.8,188.2 508.0,187.4 Q 508.7,185.2 507.0,186.8 Q 508.2,184.8 507.4,187.0 Q 505.6,188.5 507.9,187.8 Q 508.6,185.5 506.8,187.1 Q 509.0,186.3 510.6,184.5 Q 512.1,182.7 509.9,183.5 Q 511.4,181.7 509.2,182.5 Q 506.9,182.8 508.9,184.1 Q 508.0,186.3 506.3,187.9 Q 508.5,187.1 509.2,184.8 Q 510.7,183.0 512.3,181.2 Q 510.0,182.0 507.7,182.3 Q 506.9,184.5 507.7,186.8 Q 505.9,188.3 508.1,187.5 Q 508.8,185.3 507.1,186.8 Q 505.3,188.4 507.5,187.6" fill="none" stroke="#10b981" stroke-width="1.1" opacity="0.07"/>
<line x1="519.3" y1="120.6" x2="443.0" y2="244.3" stroke="#7c3aed" stroke-width="0.5" opacity="0.02"/>
<line x1="519.3" y1="120.6" x2="595.8" y2="77.3" stroke="#00d4ff" stroke-width="0.5" opacity="0.05"/>
<line x1="519.3" y1="120.6" x2="560.6" y2="92.0" stroke="#00d4ff" stroke-width="0.5" opacity="0.08"/>
<line x1="519.3" y1="120.6" x2="624.0" y2="37.4" stroke="#00d4ff" stroke-width="0.5" opacity="0.02"/>
<line x1="519.3" y1="120.6" x2="513.2" y2="256.9" stroke="#00d4ff" stroke-width="0.5" opacity="0.02"/>
<line x1="519.3" y1="120.6" x2="554.1" y2="245.3" stroke="#7c3aed" stroke-width="0.5" opacity="0.02"/>
<line x1="443.0" y1="244.3" x2="513.2" y2="256.9" stroke="#00d4ff" stroke-width="0.5" opacity="0.06"/>
<line x1="443.0" y1="244.3" x2="554.1" y2="245.3" stroke="#00d4ff" stroke-width="0.5" opacity="0.03"/>
<line x1="443.0" y1="244.3" x2="415.9" y2="237.3" stroke="#7c3aed" stroke-width="0.5" opacity="0.10"/>
<line x1="595.8" y1="77.3" x2="560.6" y2="92.0" stroke="#7c3aed" stroke-width="0.5" opacity="0.09"/>
<line x1="595.8" y1="77.3" x2="624.0" y2="37.4" stroke="#00d4ff" stroke-width="0.5" opacity="0.08"/>
<line x1="595.8" y1="77.3" x2="689.3" y2="159.8" stroke="#7c3aed" stroke-width="0.5" opacity="0.02"/>
<line x1="560.6" y1="92.0" x2="624.0" y2="37.4" stroke="#00d4ff" stroke-width="0.5" opacity="0.05"/>
<line x1="560.6" y1="92.0" x2="689.3" y2="159.8" stroke="#00d4ff" stroke-width="0.5" opacity="0.02"/>
<line x1="624.0" y1="37.4" x2="689.3" y2="159.8" stroke="#7c3aed" stroke-width="0.5" opacity="0.02"/>
<line x1="818.8" y1="259.1" x2="725.9" y2="231.0" stroke="#00d4ff" stroke-width="0.5" opacity="0.04"/>
<line x1="818.8" y1="259.1" x2="727.7" y2="236.9" stroke="#7c3aed" stroke-width="0.5" opacity="0.04"/>
<line x1="198.4" y1="83.6" x2="154.6" y2="220.1" stroke="#00d4ff" stroke-width="0.5" opacity="0.02"/>
<line x1="198.4" y1="83.6" x2="121.2" y2="45.7" stroke="#00d4ff" stroke-width="0.5" opacity="0.05"/>
<line x1="198.4" y1="83.6" x2="245.2" y2="165.2" stroke="#7c3aed" stroke-width="0.5" opacity="0.04"/>
<line x1="198.4" y1="83.6" x2="190.8" y2="172.2" stroke="#7c3aed" stroke-width="0.5" opacity="0.05"/>
<line x1="198.4" y1="83.6" x2="102.9" y2="121.7" stroke="#7c3aed" stroke-width="0.5" opacity="0.04"/>
<line x1="198.4" y1="83.6" x2="236.9" y2="197.9" stroke="#00d4ff" stroke-width="0.5" opacity="0.02"/>
<line x1="198.4" y1="83.6" x2="130.7" y2="94.0" stroke="#00d4ff" stroke-width="0.5" opacity="0.07"/>
<line x1="198.4" y1="83.6" x2="196.0" y2="79.9" stroke="#00d4ff" stroke-width="0.5" opacity="0.12"/>
<line x1="725.9" y1="231.0" x2="727.7" y2="236.9" stroke="#00d4ff" stroke-width="0.5" opacity="0.12"/>
<line x1="725.9" y1="231.0" x2="689.3" y2="159.8" stroke="#7c3aed" stroke-width="0.5" opacity="0.06"/>
<line x1="725.9" y1="231.0" x2="658.9" y2="226.6" stroke="#7c3aed" stroke-width="0.5" opacity="0.07"/>
<line x1="154.6" y1="220.1" x2="36.2" y2="216.1" stroke="#7c3aed" stroke-width="0.5" opacity="0.03"/>
<line x1="154.6" y1="220.1" x2="245.2" y2="165.2" stroke="#00d4ff" stroke-width="0.5" opacity="0.04"/>
<line x1="154.6" y1="220.1" x2="190.8" y2="172.2" stroke="#7c3aed" stroke-width="0.5" opacity="0.07"/>
<line x1="154.6" y1="220.1" x2="102.9" y2="121.7" stroke="#7c3aed" stroke-width="0.5" opacity="0.03"/>
<line x1="154.6" y1="220.1" x2="32.8" y2="205.1" stroke="#7c3aed" stroke-width="0.5" opacity="0.02"/>
<line x1="154.6" y1="220.1" x2="236.9" y2="197.9" stroke="#7c3aed" stroke-width="0.5" opacity="0.05"/>
<line x1="154.6" y1="220.1" x2="130.7" y2="94.0" stroke="#00d4ff" stroke-width="0.5" opacity="0.02"/>
<line x1="154.6" y1="220.1" x2="196.0" y2="79.9" stroke="#00d4ff" stroke-width="0.5" opacity="0.02"/>
<line x1="513.2" y1="256.9" x2="554.1" y2="245.3" stroke="#7c3aed" stroke-width="0.5" opacity="0.09"/>
<line x1="513.2" y1="256.9" x2="415.9" y2="237.3" stroke="#00d4ff" stroke-width="0.5" opacity="0.04"/>
<line x1="513.2" y1="256.9" x2="658.9" y2="226.6" stroke="#7c3aed" stroke-width="0.5" opacity="0.02"/>
<line x1="36.2" y1="216.1" x2="102.9" y2="121.7" stroke="#00d4ff" stroke-width="0.5" opacity="0.03"/>
<line x1="36.2" y1="216.1" x2="32.8" y2="205.1" stroke="#00d4ff" stroke-width="0.5" opacity="0.11"/>
<line x1="554.1" y1="245.3" x2="415.9" y2="237.3" stroke="#7c3aed" stroke-width="0.5" opacity="0.02"/>
<line x1="554.1" y1="245.3" x2="658.9" y2="226.6" stroke="#7c3aed" stroke-width="0.5" opacity="0.03"/>
<line x1="121.2" y1="45.7" x2="190.8" y2="172.2" stroke="#7c3aed" stroke-width="0.5" opacity="0.02"/>
<line x1="121.2" y1="45.7" x2="102.9" y2="121.7" stroke="#7c3aed" stroke-width="0.5" opacity="0.06"/>
<line x1="121.2" y1="45.7" x2="130.7" y2="94.0" stroke="#00d4ff" stroke-width="0.5" opacity="0.08"/>
<line x1="121.2" y1="45.7" x2="196.0" y2="79.9" stroke="#7c3aed" stroke-width="0.5" opacity="0.05"/>
<line x1="245.2" y1="165.2" x2="190.8" y2="172.2" stroke="#00d4ff" stroke-width="0.5" opacity="0.08"/>
<line x1="245.2" y1="165.2" x2="102.9" y2="121.7" stroke="#7c3aed" stroke-width="0.5" opacity="0.02"/>
<line x1="245.2" y1="165.2" x2="236.9" y2="197.9" stroke="#00d4ff" stroke-width="0.5" opacity="0.09"/>
<line x1="245.2" y1="165.2" x2="130.7" y2="94.0" stroke="#7c3aed" stroke-width="0.5" opacity="0.02"/>
<line x1="245.2" y1="165.2" x2="196.0" y2="79.9" stroke="#00d4ff" stroke-width="0.5" opacity="0.04"/>
<line x1="190.8" y1="172.2" x2="102.9" y2="121.7" stroke="#00d4ff" stroke-width="0.5" opacity="0.04"/>
<line x1="190.8" y1="172.2" x2="236.9" y2="197.9" stroke="#7c3aed" stroke-width="0.5" opacity="0.08"/>
<line x1="190.8" y1="172.2" x2="130.7" y2="94.0" stroke="#7c3aed" stroke-width="0.5" opacity="0.04"/>
<line x1="190.8" y1="172.2" x2="196.0" y2="79.9" stroke="#00d4ff" stroke-width="0.5" opacity="0.05"/>
<line x1="102.9" y1="121.7" x2="32.8" y2="205.1" stroke="#7c3aed" stroke-width="0.5" opacity="0.03"/>
<line x1="102.9" y1="121.7" x2="130.7" y2="94.0" stroke="#7c3aed" stroke-width="0.5" opacity="0.09"/>
<line x1="102.9" y1="121.7" x2="196.0" y2="79.9" stroke="#00d4ff" stroke-width="0.5" opacity="0.04"/>
<line x1="32.8" y1="205.1" x2="130.7" y2="94.0" stroke="#7c3aed" stroke-width="0.5" opacity="0.02"/>
<line x1="236.9" y1="197.9" x2="130.7" y2="94.0" stroke="#7c3aed" stroke-width="0.5" opacity="0.02"/>
<line x1="236.9" y1="197.9" x2="196.0" y2="79.9" stroke="#7c3aed" stroke-width="0.5" opacity="0.02"/>
<line x1="727.7" y1="236.9" x2="689.3" y2="159.8" stroke="#7c3aed" stroke-width="0.5" opacity="0.05"/>
<line x1="727.7" y1="236.9" x2="658.9" y2="226.6" stroke="#7c3aed" stroke-width="0.5" opacity="0.06"/>
<line x1="689.3" y1="159.8" x2="658.9" y2="226.6" stroke="#7c3aed" stroke-width="0.5" opacity="0.06"/>
<line x1="130.7" y1="94.0" x2="196.0" y2="79.9" stroke="#00d4ff" stroke-width="0.5" opacity="0.07"/>
<circle cx="519.3" cy="120.6" r="3.0" fill="#7c3aed" opacity="0.30" filter="url(#softGlow)"/>
<circle cx="443.0" cy="244.3" r="2.0" fill="#f59e0b" opacity="0.39" filter="url(#softGlow)"/>
<circle cx="595.8" cy="77.3" r="2.5" fill="#7c3aed" opacity="0.37" filter="url(#softGlow)"/>
<circle cx="560.6" cy="92.0" r="2.3" fill="#10b981" opacity="0.29" filter="url(#softGlow)"/>
<circle cx="624.0" cy="37.4" r="2.6" fill="#00d4ff" opacity="0.26" filter="url(#softGlow)"/>
<circle cx="818.8" cy="259.1" r="1.7" fill="#7c3aed" opacity="0.30" filter="url(#softGlow)"/>
<circle cx="198.4" cy="83.6" r="3.8" fill="#10b981" opacity="0.31" filter="url(#softGlow)"/>
<circle cx="725.9" cy="231.0" r="2.4" fill="#f59e0b" opacity="0.39" filter="url(#softGlow)"/>
<circle cx="154.6" cy="220.1" r="3.3" fill="#f59e0b" opacity="0.43" filter="url(#softGlow)"/>
<circle cx="513.2" cy="256.9" r="3.1" fill="#7c3aed" opacity="0.38" filter="url(#softGlow)"/>
<circle cx="36.2" cy="216.1" r="2.2" fill="#10b981" opacity="0.33" filter="url(#softGlow)"/>
<circle cx="554.1" cy="245.3" r="1.8" fill="#10b981" opacity="0.18" filter="url(#softGlow)"/>
<circle cx="121.2" cy="45.7" r="2.9" fill="#7c3aed" opacity="0.39" filter="url(#softGlow)"/>
<circle cx="245.2" cy="165.2" r="3.3" fill="#7c3aed" opacity="0.43" filter="url(#softGlow)"/>
<circle cx="190.8" cy="172.2" r="2.2" fill="#7c3aed" opacity="0.16" filter="url(#softGlow)"/>
<circle cx="415.9" cy="237.3" r="3.6" fill="#7c3aed" opacity="0.49" filter="url(#softGlow)"/>
<circle cx="102.9" cy="121.7" r="2.2" fill="#00d4ff" opacity="0.31" filter="url(#softGlow)"/>
<circle cx="32.8" cy="205.1" r="3.1" fill="#7c3aed" opacity="0.40" filter="url(#softGlow)"/>
<circle cx="236.9" cy="197.9" r="2.9" fill="#f59e0b" opacity="0.32" filter="url(#softGlow)"/>
<circle cx="367.9" cy="22.3" r="1.7" fill="#7c3aed" opacity="0.20" filter="url(#softGlow)"/>
<circle cx="727.7" cy="236.9" r="2.9" fill="#00d4ff" opacity="0.46" filter="url(#softGlow)"/>
<circle cx="689.3" cy="159.8" r="1.9" fill="#00d4ff" opacity="0.42" filter="url(#softGlow)"/>
<circle cx="130.7" cy="94.0" r="3.7" fill="#7c3aed" opacity="0.21" filter="url(#softGlow)"/>
<circle cx="658.9" cy="226.6" r="3.7" fill="#f59e0b" opacity="0.17" filter="url(#softGlow)"/>
<circle cx="196.0" cy="79.9" r="1.8" fill="#7c3aed" opacity="0.47" filter="url(#softGlow)"/>
<circle cx="205.0" cy="140.0" r="3.0" fill="#7c3aed" opacity="0.30"/>
<circle cx="206.1" cy="140.9" r="3.0" fill="#00d4ff" opacity="0.30"/>
<circle cx="207.1" cy="142.2" r="2.9" fill="#00d4ff" opacity="0.29"/>
<circle cx="207.7" cy="143.7" r="2.9" fill="#7c3aed" opacity="0.29"/>
<circle cx="208.1" cy="145.5" r="2.9" fill="#00d4ff" opacity="0.29"/>
<circle cx="208.0" cy="147.5" r="2.9" fill="#00d4ff" opacity="0.28"/>
<circle cx="207.6" cy="149.6" r="2.8" fill="#7c3aed" opacity="0.28"/>
<circle cx="206.7" cy="151.6" r="2.8" fill="#00d4ff" opacity="0.28"/>
<circle cx="205.3" cy="153.6" r="2.8" fill="#00d4ff" opacity="0.28"/>
<circle cx="203.5" cy="155.4" r="2.7" fill="#7c3aed" opacity="0.27"/>
<circle cx="201.2" cy="157.0" r="2.7" fill="#00d4ff" opacity="0.27"/>
<circle cx="198.6" cy="158.1" r="2.7" fill="#00d4ff" opacity="0.27"/>
<circle cx="195.6" cy="158.9" r="2.6" fill="#7c3aed" opacity="0.26"/>
<circle cx="192.4" cy="159.1" r="2.6" fill="#00d4ff" opacity="0.26"/>
<circle cx="189.0" cy="158.8" r="2.6" fill="#00d4ff" opacity="0.26"/>
<circle cx="185.6" cy="157.9" r="2.5" fill="#7c3aed" opacity="0.26"/>
<circle cx="182.2" cy="156.3" r="2.5" fill="#00d4ff" opacity="0.25"/>
<circle cx="178.9" cy="154.2" r="2.5" fill="#00d4ff" opacity="0.25"/>
<circle cx="176.0" cy="151.4" r="2.5" fill="#7c3aed" opacity="0.25"/>
<circle cx="173.4" cy="148.0" r="2.4" fill="#00d4ff" opacity="0.24"/>
<circle cx="171.3" cy="144.1" r="2.4" fill="#00d4ff" opacity="0.24"/>
<circle cx="169.8" cy="139.7" r="2.4" fill="#7c3aed" opacity="0.24"/>
<circle cx="169.0" cy="135.0" r="2.3" fill="#00d4ff" opacity="0.23"/>
<circle cx="168.9" cy="130.1" r="2.3" fill="#00d4ff" opacity="0.23"/>
<circle cx="169.7" cy="125.0" r="2.3" fill="#7c3aed" opacity="0.23"/>
<circle cx="171.3" cy="120.0" r="2.2" fill="#00d4ff" opacity="0.22"/>
<circle cx="173.7" cy="115.1" r="2.2" fill="#00d4ff" opacity="0.22"/>
<circle cx="177.0" cy="110.5" r="2.2" fill="#7c3aed" opacity="0.22"/>
<circle cx="181.1" cy="106.4" r="2.2" fill="#00d4ff" opacity="0.22"/>
<circle cx="185.9" cy="102.8" r="2.1" fill="#00d4ff" opacity="0.21"/>
<circle cx="191.4" cy="99.9" r="2.1" fill="#7c3aed" opacity="0.21"/>
<circle cx="197.4" cy="97.9" r="2.1" fill="#00d4ff" opacity="0.21"/>
<circle cx="203.8" cy="96.8" r="2.0" fill="#00d4ff" opacity="0.20"/>
<circle cx="210.5" cy="96.7" r="2.0" fill="#7c3aed" opacity="0.20"/>
<circle cx="217.3" cy="97.6" r="2.0" fill="#00d4ff" opacity="0.20"/>
<circle cx="224.1" cy="99.6" r="1.9" fill="#00d4ff" opacity="0.20"/>
<circle cx="230.6" cy="102.8" r="1.9" fill="#7c3aed" opacity="0.19"/>
<circle cx="236.7" cy="106.9" r="1.9" fill="#00d4ff" opacity="0.19"/>
<circle cx="242.2" cy="112.1" r="1.9" fill="#00d4ff" opacity="0.19"/>
<circle cx="247.0" cy="118.3" r="1.8" fill="#7c3aed" opacity="0.18"/>
<circle cx="250.9" cy="125.2" r="1.8" fill="#00d4ff" opacity="0.18"/>
<circle cx="253.7" cy="132.8" r="1.8" fill="#00d4ff" opacity="0.18"/>
<circle cx="255.4" cy="140.9" r="1.7" fill="#7c3aed" opacity="0.17"/>
<circle cx="255.8" cy="149.4" r="1.7" fill="#00d4ff" opacity="0.17"/>
<circle cx="254.9" cy="158.0" r="1.7" fill="#00d4ff" opacity="0.17"/>
<circle cx="252.7" cy="166.6" r="1.7" fill="#7c3aed" opacity="0.16"/>
<circle cx="249.1" cy="174.8" r="1.6" fill="#00d4ff" opacity="0.16"/>
<circle cx="244.2" cy="182.6" r="1.6" fill="#00d4ff" opacity="0.16"/>
<circle cx="238.1" cy="189.7" r="1.6" fill="#7c3aed" opacity="0.16"/>
<circle cx="230.8" cy="195.9" r="1.5" fill="#00d4ff" opacity="0.15"/>
<circle cx="222.5" cy="201.0" r="1.5" fill="#00d4ff" opacity="0.15"/>
<circle cx="213.4" cy="204.8" r="1.5" fill="#7c3aed" opacity="0.15"/>
<circle cx="203.6" cy="207.3" r="1.4" fill="#00d4ff" opacity="0.14"/>
<circle cx="193.4" cy="208.3" r="1.4" fill="#00d4ff" opacity="0.14"/>
<circle cx="183.0" cy="207.7" r="1.4" fill="#7c3aed" opacity="0.14"/>
<circle cx="172.6" cy="205.5" r="1.4" fill="#00d4ff" opacity="0.13"/>
<circle cx="162.5" cy="201.7" r="1.3" fill="#00d4ff" opacity="0.13"/>
<circle cx="152.9" cy="196.3" r="1.3" fill="#7c3aed" opacity="0.13"/>
<circle cx="144.2" cy="189.5" r="1.3" fill="#00d4ff" opacity="0.13"/>
<circle cx="136.4" cy="181.2" r="1.2" fill="#00d4ff" opacity="0.12"/>
<circle cx="129.8" cy="171.7" r="1.2" fill="#7c3aed" opacity="0.12"/>
<circle cx="124.7" cy="161.2" r="1.2" fill="#00d4ff" opacity="0.12"/>
<circle cx="121.2" cy="149.9" r="1.1" fill="#00d4ff" opacity="0.11"/>
<circle cx="119.4" cy="138.0" r="1.1" fill="#7c3aed" opacity="0.11"/>
<circle cx="119.5" cy="125.7" r="1.1" fill="#00d4ff" opacity="0.11"/>
<circle cx="121.4" cy="113.5" r="1.1" fill="#00d4ff" opacity="0.10"/>
<circle cx="125.1" cy="101.5" r="1.0" fill="#7c3aed" opacity="0.10"/>
<circle cx="130.8" cy="90.0" r="1.0" fill="#00d4ff" opacity="0.10"/>
<circle cx="138.1" cy="79.4" r="1.0" fill="#00d4ff" opacity="0.10"/>
<circle cx="147.2" cy="69.9" r="0.9" fill="#7c3aed" opacity="0.09"/>
<circle cx="157.7" cy="61.7" r="0.9" fill="#00d4ff" opacity="0.09"/>
<circle cx="169.4" cy="55.1" r="0.9" fill="#00d4ff" opacity="0.09"/>
<circle cx="182.2" cy="50.3" r="0.8" fill="#7c3aed" opacity="0.08"/>
<circle cx="195.8" cy="47.5" r="0.8" fill="#00d4ff" opacity="0.08"/>
<circle cx="209.8" cy="46.7" r="0.8" fill="#00d4ff" opacity="0.08"/>
<circle cx="223.9" cy="48.1" r="0.8" fill="#7c3aed" opacity="0.07"/>
<circle cx="237.9" cy="51.6" r="0.7" fill="#00d4ff" opacity="0.07"/>
<circle cx="251.3" cy="57.2" r="0.7" fill="#00d4ff" opacity="0.07"/>
<circle cx="263.9" cy="64.9" r="0.7" fill="#7c3aed" opacity="0.07"/>
<circle cx="275.3" cy="74.5" r="0.6" fill="#00d4ff" opacity="0.06"/>
<circle cx="103.2" cy="37.3" r="1.2" fill="#f59e0b" opacity="0.39" filter="url(#softGlow)"/>
<circle cx="757.7" cy="171.5" r="1.6" fill="#10b981" opacity="0.35" filter="url(#softGlow)"/>
<circle cx="465.7" cy="251.2" r="1.6" fill="#10b981" opacity="0.24" filter="url(#softGlow)"/>
<circle cx="639.0" cy="235.2" r="0.9" fill="#10b981" opacity="0.29" filter="url(#softGlow)"/>
<circle cx="233.4" cy="21.7" r="0.9" fill="#f59e0b" opacity="0.20" filter="url(#softGlow)"/>
<circle cx="759.1" cy="22.6" r="0.7" fill="#10b981" opacity="0.31" filter="url(#softGlow)"/>
<circle cx="600.5" cy="18.0" r="1.1" fill="#10b981" opacity="0.22" filter="url(#softGlow)"/>
<circle cx="175.8" cy="117.6" r="1.9" fill="#00d4ff" opacity="0.36" filter="url(#softGlow)"/>
<circle cx="650.8" cy="106.5" r="0.5" fill="#f59e0b" opacity="0.19" filter="url(#softGlow)"/>
<circle cx="331.5" cy="249.7" r="1.8" fill="#7c3aed" opacity="0.25" filter="url(#softGlow)"/>
<circle cx="232.0" cy="136.0" r="1.1" fill="#10b981" opacity="0.32" filter="url(#softGlow)"/>
<circle cx="714.4" cy="257.5" r="2.0" fill="#00d4ff" opacity="0.37" filter="url(#softGlow)"/>
<circle cx="503.1" cy="185.6" r="0.6" fill="#10b981" opacity="0.14" filter="url(#softGlow)"/>
<circle cx="392.4" cy="14.1" r="1.1" fill="#7c3aed" opacity="0.24" filter="url(#softGlow)"/>
<circle cx="286.9" cy="246.3" r="0.9" fill="#10b981" opacity="0.18" filter="url(#softGlow)"/>
<circle cx="69.6" cy="5.4" r="1.3" fill="#f59e0b" opacity="0.17" filter="url(#softGlow)"/>
<circle cx="58.3" cy="268.0" r="0.6" fill="#00d4ff" opacity="0.38" filter="url(#softGlow)"/>
<circle cx="169.5" cy="5.7" r="0.7" fill="#7c3aed" opacity="0.24" filter="url(#softGlow)"/>
<circle cx="97.2" cy="265.4" r="1.2" fill="#f59e0b" opacity="0.33" filter="url(#softGlow)"/>
<circle cx="142.6" cy="170.0" r="1.6" fill="#00d4ff" opacity="0.33" filter="url(#softGlow)"/>
<circle cx="139.2" cy="87.1" r="1.4" fill="#f59e0b" opacity="0.27" filter="url(#softGlow)"/>
<circle cx="771.8" cy="105.1" r="1.9" fill="#7c3aed" opacity="0.12" filter="url(#softGlow)"/>
<circle cx="587.0" cy="175.6" r="0.7" fill="#f59e0b" opacity="0.36" filter="url(#softGlow)"/>
<circle cx="510.3" cy="33.9" r="2.0" fill="#00d4ff" opacity="0.20" filter="url(#softGlow)"/>
<circle cx="364.1" cy="103.8" r="1.3" fill="#f59e0b" opacity="0.10" filter="url(#softGlow)"/>
<circle cx="357.0" cy="137.3" r="1.2" fill="#f59e0b" opacity="0.29" filter="url(#softGlow)"/>
<circle cx="704.4" cy="198.0" r="1.2" fill="#f59e0b" opacity="0.28" filter="url(#softGlow)"/>
<circle cx="781.7" cy="216.9" r="1.2" fill="#f59e0b" opacity="0.20" filter="url(#softGlow)"/>
<circle cx="208.7" cy="261.7" r="0.9" fill="#10b981" opacity="0.17" filter="url(#softGlow)"/>
<circle cx="395.0" cy="170.9" r="1.1" fill="#00d4ff" opacity="0.25" filter="url(#softGlow)"/>
<circle cx="276.3" cy="136.5" r="1.0" fill="#f59e0b" opacity="0.20" filter="url(#softGlow)"/>
<circle cx="748.3" cy="196.3" r="0.9" fill="#00d4ff" opacity="0.25" filter="url(#softGlow)"/>
<circle cx="162.4" cy="67.6" r="1.1" fill="#7c3aed" opacity="0.31" filter="url(#softGlow)"/>
<circle cx="549.0" cy="137.4" r="1.7" fill="#00d4ff" opacity="0.19" filter="url(#softGlow)"/>
<circle cx="343.7" cy="68.1" r="1.5" fill="#f59e0b" opacity="0.24" filter="url(#softGlow)"/>
<circle cx="451.3" cy="119.1" r="1.6" fill="#f59e0b" opacity="0.21" filter="url(#softGlow)"/>
<circle cx="385.7" cy="85.9" r="0.8" fill="#7c3aed" opacity="0.19" filter="url(#softGlow)"/>
<circle cx="631.4" cy="266.2" r="1.5" fill="#7c3aed" opacity="0.16" filter="url(#softGlow)"/>
<circle cx="411.6" cy="202.9" r="2.0" fill="#f59e0b" opacity="0.39" filter="url(#softGlow)"/>
<circle cx="707.7" cy="82.9" r="1.0" fill="#f59e0b" opacity="0.10" filter="url(#softGlow)"/>
<circle cx="454.0" cy="76.8" r="2.0" fill="#f59e0b" opacity="0.31" filter="url(#softGlow)"/>
<circle cx="107.3" cy="243.2" r="1.2" fill="#00d4ff" opacity="0.27" filter="url(#softGlow)"/>
<circle cx="399.0" cy="123.3" r="0.8" fill="#00d4ff" opacity="0.18" filter="url(#softGlow)"/>
<circle cx="732.5" cy="31.9" r="0.6" fill="#10b981" opacity="0.12" filter="url(#softGlow)"/>
<circle cx="535.0" cy="15.0" r="0.7" fill="#f59e0b" opacity="0.13" filter="url(#softGlow)"/>
<circle cx="211.0" cy="156.3" r="1.1" fill="#7c3aed" opacity="0.33" filter="url(#softGlow)"/>
<circle cx="323.3" cy="254.4" r="0.9" fill="#10b981" opacity="0.19" filter="url(#softGlow)"/>
<circle cx="527.9" cy="170.7" r="1.6" fill="#7c3aed" opacity="0.29" filter="url(#softGlow)"/>
<circle cx="224.9" cy="22.7" r="0.9" fill="#00d4ff" opacity="0.15" filter="url(#softGlow)"/>
<circle cx="347.2" cy="193.0" r="1.2" fill="#00d4ff" opacity="0.17" filter="url(#softGlow)"/>
<line x1="0" y1="56" x2="850" y2="56" stroke="#00d4ff" stroke-width="0.2" opacity="0.03"/>
<line x1="0" y1="60" x2="850" y2="60" stroke="#00d4ff" stroke-width="0.2" opacity="0.03"/>
<line x1="0" y1="76" x2="850" y2="76" stroke="#00d4ff" stroke-width="0.2" opacity="0.03"/>
<line x1="0" y1="80" x2="850" y2="80" stroke="#00d4ff" stroke-width="0.2" opacity="0.03"/>
<line x1="0" y1="104" x2="850" y2="104" stroke="#00d4ff" stroke-width="0.2" opacity="0.03"/>
<line x1="0" y1="108" x2="850" y2="108" stroke="#00d4ff" stroke-width="0.2" opacity="0.03"/>
<line x1="0" y1="120" x2="850" y2="120" stroke="#00d4ff" stroke-width="0.2" opacity="0.03"/>
<line x1="0" y1="124" x2="850" y2="124" stroke="#00d4ff" stroke-width="0.2" opacity="0.03"/>
<line x1="0" y1="152" x2="850" y2="152" stroke="#00d4ff" stroke-width="0.2" opacity="0.03"/>
<line x1="0" y1="156" x2="850" y2="156" stroke="#00d4ff" stroke-width="0.2" opacity="0.03"/>
<line x1="0" y1="176" x2="850" y2="176" stroke="#00d4ff" stroke-width="0.2" opacity="0.03"/>
<line x1="0" y1="192" x2="850" y2="192" stroke="#00d4ff" stroke-width="0.2" opacity="0.03"/>
<line x1="0" y1="220" x2="850" y2="220" stroke="#00d4ff" stroke-width="0.2" opacity="0.03"/>
<line x1="0" y1="276" x2="850" y2="276" stroke="#00d4ff" stroke-width="0.2" opacity="0.03"/>

<!-- Main text -->
<text x="425" y="100" text-anchor="middle" font-family="'Segoe UI', 'SF Pro Display', 'Helvetica Neue', Arial, sans-serif" font-size="48" font-weight="700" fill="#e2e8f0" filter="url(#textGlow)" letter-spacing="2">
  Islam Mustafa
</text>

<!-- Subtitle with gradient feel -->
<text x="425" y="135" text-anchor="middle" font-family="'Fira Code', 'Cascadia Code', 'JetBrains Mono', monospace" font-size="14" fill="#00d4ff" opacity="0.9" letter-spacing="3">
  SYSTEMS ARCHITECT  ·  AI ENGINEER  ·  CRYPTO DEV
</text>


<line x1="245" y1="150" x2="605" y2="150" stroke="#00d4ff" stroke-width="0.5" opacity="0.3"/>
<circle cx="425" cy="150" r="2" fill="#00d4ff" opacity="0.6"/>
<circle cx="245" cy="150" r="1.5" fill="#7c3aed" opacity="0.5"/>
<circle cx="605" cy="150" r="1.5" fill="#7c3aed" opacity="0.5"/>

<text x="425" y="175" text-anchor="middle" font-family="'Fira Code', monospace" font-size="12" fill="#10b981" opacity="0.9">$ whoami</text>
<text x="425" y="193" text-anchor="middle" font-family="'Fira Code', monospace" font-size="11" fill="#e2e8f0" opacity="0.65">→ AI Automation Architect from Egypt 🇪🇬</text>
<text x="425" y="211" text-anchor="middle" font-family="'Fira Code', monospace" font-size="11" fill="#e2e8f0" opacity="0.65">→ Building intelligent systems that trade, analyze &amp; automate</text>
<text x="425" y="229" text-anchor="middle" font-family="'Fira Code', monospace" font-size="11" fill="#e2e8f0" opacity="0.65">→ 2nd Year Med Student × Full-Stack Developer</text>

<!-- Bottom accent line -->
<rect x="0" y="277" width="850" height="3" fill="url(#bgGrad)"/>
<rect x="0" y="278" width="255.0" height="2" fill="#00d4ff" opacity="0.6"/>
<rect x="255.0" y="278" width="340.0" height="2" fill="#7c3aed" opacity="0.4"/>
<rect x="595.0" y="278" width="255.0" height="2" fill="#f59e0b" opacity="0.5"/>

</g>
</svg>