<svg xmlns="http://www.w3.org/2000/svg" width="260" height="242" viewBox="0 0 260 242">
<defs>
  <linearGradient id="cardBg" x1="0%" y1="0%" x2="100%" y2="100%">
    <stop offset="0%" style="stop-color:#161b22;stop-opacity:1"/>
    <stop offset="100%" style="stop-color:#0d1117;stop-opacity:1"/>
  </linearGradient>
  <filter id="glow" x="-20%" y="-20%" width="140%" height="140%">
    <feGaussianBlur stdDeviation="2" result="blur"/>
    <feMerge><feMergeNode in="blur"/><feMergeNode in="SourceGraphic"/></feMerge>
  </filter>
</defs>

<rect x="1" y="1" width="258" height="240" rx="12" fill="url(#cardBg)" stroke="#21262d" stroke-width="1"/>
<rect x="1" y="1" width="258" height="3" rx="12" fill="#00d4ff" opacity="0.6"/>

<text x="16" y="32" font-family="'Segoe UI', sans-serif" font-size="15" font-weight="600" fill="#e2e8f0">
  &#x26A1;  Languages &#x26; Core
</text>

<line x1="16" y1="44" x2="244" y2="44" stroke="#21262d" stroke-width="0.5"/>

<text x="16" y="65" font-family="'Fira Code', monospace" font-size="11" fill="#8b949e">Python</text>
<rect x="118" y="57" width="126" height="7" rx="3" fill="#21262d" opacity="0.5"/>
<rect x="118" y="57" width="120" height="7" rx="3" fill="#00d4ff" opacity="0.8"/>

<text x="16" y="95" font-family="'Fira Code', monospace" font-size="11" fill="#8b949e">JavaScript</text>
<rect x="118" y="87" width="126" height="7" rx="3" fill="#21262d" opacity="0.5"/>
<rect x="118" y="87" width="101" height="7" rx="3" fill="#f59e0b" opacity="0.8"/>

<text x="16" y="125" font-family="'Fira Code', monospace" font-size="11" fill="#8b949e">Dart/Flutter</text>
<rect x="118" y="117" width="126" height="7" rx="3" fill="#21262d" opacity="0.5"/>
<rect x="118" y="117" width="94" height="7" rx="3" fill="#7c3aed" opacity="0.8"/>

<text x="16" y="155" font-family="'Fira Code', monospace" font-size="11" fill="#8b949e">Bash/Shell</text>
<rect x="118" y="147" width="126" height="7" rx="3" fill="#21262d" opacity="0.5"/>
<rect x="118" y="147" width="107" height="7" rx="3" fill="#10b981" opacity="0.8"/>

<text x="16" y="185" font-family="'Fira Code', monospace" font-size="11" fill="#8b949e">TypeScript</text>
<rect x="118" y="177" width="126" height="7" rx="3" fill="#21262d" opacity="0.5"/>
<rect x="118" y="177" width="76" height="7" rx="3" fill="#f43f5e" opacity="0.8"/>

<text x="16" y="215" font-family="'Fira Code', monospace" font-size="11" fill="#8b949e">HTML/CSS</text>
<rect x="118" y="207" width="126" height="7" rx="3" fill="#21262d" opacity="0.5"/>
<rect x="118" y="207" width="113" height="7" rx="3" fill="#e34c26" opacity="0.8"/>
</svg>